GIL08_slow4_ik
nRows=3
nColumns=375

# SIMM Motion File Header:
name GIL08_slow4_ik
datacolumns 375
datarows 3
otherdata 1
range 1.19167000 1.20833000
endheader
time	pelvis_tx	pelvis_ty	pelvis_tz	pelvis_tilt	pelvis_list	pelvis_rotation	hip_flexion_r	hip_adduction_r	hip_rotation_r	knee_angle_r	ankle_angle_r	hip_flexion_l	hip_adduction_l	hip_rotation_l	knee_angle_l	ankle_angle_l	lumbar_extension	lumbar_bending	lumbar_rotation	subtalar_angle_r	mtp_angle_r	subtalar_angle_l	mtp_angle_l	asis_r_px	asis_r_py	asis_r_pz	asis_l_px	asis_l_py	asis_l_pz	midasis_px	midasis_py	midasis_pz	psis_r_px	psis_r_py	psis_r_pz	psis_l_px	psis_l_py	psis_l_pz	hip_r_px	hip_r_py	hip_r_pz	hip_l_px	hip_l_py	hip_l_pz	midhip_px	midhip_py	midhip_pz	epicondLat_r_px	epicondLat_r_py	epicondLat_r_pz	epicondMed_r_px	epicondMed_r_py	epicondMed_r_pz	thighwand_r_px	thighwand_r_py	thighwand_r_pz	upperleg1_r_px	upperleg1_r_py	upperleg1_r_pz	upperleg2_r_px	upperleg2_r_py	upperleg2_r_pz	malleolusLat_r_px	malleolusLat_r_py	malleolusLat_r_pz	malleolusMedv_r_px	malleolusMedv_r_py	malleolusMedv_r_pz	shankwand_r_px	shankwand_r_py	shankwand_r_pz	lowerleg1_r_px	lowerleg1_r_py	lowerleg1_r_pz	knee_r_px	knee_r_py	knee_r_pz	ankle_r_px	ankle_r_py	ankle_r_pz	toe_r_px	toe_r_py	toe_r_pz	epicondLat_l_px	epicondLat_l_py	epicondLat_l_pz	epicondMed_l_px	epicondMed_l_py	epicondMed_l_pz	thighwand_l_px	thighwand_l_py	thighwand_l_pz	upperleg1_l_px	upperleg1_l_py	upperleg1_l_pz	upperleg2_l_px	upperleg2_l_py	upperleg2_l_pz	malleolusLat_l_px	malleolusLat_l_py	malleolusLat_l_pz	malleolusMedv_l_px	malleolusMedv_l_py	malleolusMedv_l_pz	shankwand_l_px	shankwand_l_py	shankwand_l_pz	lowerleg1_l_px	lowerleg1_l_py	lowerleg1_l_pz	knee_l_px	knee_l_py	knee_l_pz	ankle_l_px	ankle_l_py	ankle_l_pz	toe_l_px	toe_l_py	toe_l_pz	subclavicle_r_px	subclavicle_r_py	subclavicle_r_pz	subclavicle_l_px	subclavicle_l_py	subclavicle_l_pz	neck_px	neck_py	neck_pz	sternalnotch_px	sternalnotch_py	sternalnotch_pz	xyphoidprocess_px	xyphoidprocess_py	xyphoidprocess_pz	midhip_tx	midhip_ty	midhip_tz	hip_r_tx	hip_r_ty	hip_r_tz	hip_l_tx	hip_l_ty	hip_l_tz	knee_r_tx	knee_r_ty	knee_r_tz	knee_l_tx	knee_l_ty	knee_l_tz	ankle_r_tx	ankle_r_ty	ankle_r_tz	ankle_l_tx	ankle_l_ty	ankle_l_tz	midasis_tx	midasis_ty	midasis_tz	asis_r_tx	asis_r_ty	asis_r_tz	asis_l_tx	asis_l_ty	asis_l_tz	psis_r_tx	psis_r_ty	psis_r_tz	psis_l_tx	psis_l_ty	psis_l_tz	epicondLat_r_tx	epicondLat_r_ty	epicondLat_r_tz	epicondLat_l_tx	epicondLat_l_ty	epicondLat_l_tz	epicondMed_r_tx	epicondMed_r_ty	epicondMed_r_tz	epicondMed_l_tx	epicondMed_l_ty	epicondMed_l_tz	malleolusLat_r_tx	malleolusLat_r_ty	malleolusLat_r_tz	malleolusLat_l_tx	malleolusLat_l_ty	malleolusLat_l_tz	malleolusMedv_r_tx	malleolusMedv_r_ty	malleolusMedv_r_tz	malleolusMedv_l_tx	malleolusMedv_l_ty	malleolusMedv_l_tz	neck_tx	neck_ty	neck_tz	subclavicle_r_tx	subclavicle_r_ty	subclavicle_r_tz	subclavicle_l_tx	subclavicle_l_ty	subclavicle_l_tz	sternalnotch_tx	sternalnotch_ty	sternalnotch_tz	xyphoidprocess_tx	xyphoidprocess_ty	xyphoidprocess_tz	thighwand_r_tx	thighwand_r_ty	thighwand_r_tz	thighwand_l_tx	thighwand_l_ty	thighwand_l_tz	upperleg1_r_tx	upperleg1_r_ty	upperleg1_r_tz	upperleg1_l_tx	upperleg1_l_ty	upperleg1_l_tz	upperleg2_r_tx	upperleg2_r_ty	upperleg2_r_tz	upperleg2_l_tx	upperleg2_l_ty	upperleg2_l_tz	shankwand_r_tx	shankwand_r_ty	shankwand_r_tz	shankwand_l_tx	shankwand_l_ty	shankwand_l_tz	lowerleg1_r_tx	lowerleg1_r_ty	lowerleg1_r_tz	lowerleg1_l_tx	lowerleg1_l_ty	lowerleg1_l_tz	toe_r_tx	toe_r_ty	toe_r_tz	toe_l_tx	toe_l_ty	toe_l_tz	ground_force_vx	ground_force_vy	ground_force_vz	ground_force_px	ground_force_py	ground_force_pz	ground_force_vx	ground_force_vy	ground_force_vz	ground_force_px	ground_force_py	ground_force_pz	ground_torque_x	ground_torque_y	ground_torque_z	ground_torque_x	ground_torque_y	ground_torque_z	ground_marker_px	ground_marker_py	ground_marker_pz	ground_marker_px	ground_marker_py	ground_marker_pz	ground_marker_px	ground_marker_py	ground_marker_pz	ground_marker_px	ground_marker_py	ground_marker_pz	ground_marker_px	ground_marker_py	ground_marker_pz	ground_marker_px	ground_marker_py	ground_marker_pz	ground_marker_px	ground_marker_py	ground_marker_pz	ground_marker_px	ground_marker_py	ground_marker_pz	ground_marker_px	ground_marker_py	ground_marker_pz	ground_marker_px	ground_marker_py	ground_marker_pz	ground_marker_px	ground_marker_py	ground_marker_pz	ground_marker_px	ground_marker_py	ground_marker_pz	ground_marker_px	ground_marker_py	ground_marker_pz	ground_marker_px	ground_marker_py	ground_marker_pz	ground_marker_px	ground_marker_py	ground_marker_pz	ground_marker_px	ground_marker_py	ground_marker_pz	ground_marker_px	ground_marker_py	ground_marker_pz	ground_marker_px	ground_marker_py	ground_marker_pz	ground_marker_px	ground_marker_py	ground_marker_pz	ground_marker_px	ground_marker_py	ground_marker_pz	ground_marker_px	ground_marker_py	ground_marker_pz	ground_marker_px	ground_marker_py	ground_marker_pz	ground_marker_px	ground_marker_py	ground_marker_pz	ground_marker_px	ground_marker_py	ground_marker_pz	ground_marker_px	ground_marker_py	ground_marker_pz	ground_marker_px	ground_marker_py	ground_marker_pz	ground_marker_px	ground_marker_py	ground_marker_pz	ground_marker_px	ground_marker_py	ground_marker_pz	ground_marker_px	ground_marker_py	ground_marker_pz	ground_marker_px	ground_marker_py	ground_marker_pz	ground_marker_px	ground_marker_py	ground_marker_pz	ground_marker_px	ground_marker_py	ground_marker_pz	ground_marker_px	ground_marker_py	ground_marker_pz	ground_marker_px	ground_marker_py	ground_marker_pz	ground_marker_px	ground_marker_py	ground_marker_pz	ground_marker_px	ground_marker_py	ground_marker_pz	ground_marker_px	ground_marker_py	ground_marker_pz
      1.19167000	     -1.50291458	      0.97027599	      0.22253642	      5.17416836	      0.52820492	      5.25689322	     -2.83345822	      1.58452246	      2.72174703	     -8.59334569	      5.32331167	     11.77973517	     -0.68916211	      4.71467617	    -45.71571139	      7.08211390	    -11.62023339	      3.40351158	     -0.54632628	      0.00000000	      0.00000000	      0.00000000	      0.00000000	     -1.44742602	      0.99407573	      0.31723497	     -1.47440416	      0.99740572	      0.10602253	     -1.49136341	      0.97133186	      0.22146923	     -1.65683782	      0.98720605	      0.28056382	     -1.67039947	      0.98911076	      0.19346229	     -1.54989153	      0.91011246	      0.29659746	     -1.56268528	      0.91023472	      0.15823999	     -1.55628840	      0.91017359	      0.22741873	     -1.47649342	      0.47548256	      0.32478263	     -1.51920709	      0.49712136	      0.21412236	     -1.43429457	      0.59362504	      0.39765864	     -1.43791014	      0.65542225	      0.32697658	     -1.43906254	      0.57444716	      0.30246242	     -1.59012395	      0.06370333	      0.32161693	     -1.60058280	      0.06498806	      0.25389067	     -1.54789788	      0.13081723	      0.38317266	     -1.56232259	      0.19243434	      0.32463933	     -1.53742766	      0.49669838	      0.28375575	     -1.58318308	      0.08243412	      0.27914486	     -1.47160241	      0.04096561	      0.26447387	     -1.40621763	      0.50806798	      0.06813582	     -1.42181463	      0.50562063	      0.17519761	     -1.31028140	      0.68102267	      0.12897468	     -1.40036386	      0.71659487	      0.09438367	     -1.38464091	      0.63131892	      0.09082335	     -1.65830543	      0.13197251	      0.09137488	     -1.64338556	      0.13136312	      0.15960426	     -1.50555397	      0.16918004	      0.12850816	     -1.53904549	      0.24673513	      0.12221536	     -1.43836449	      0.50982631	      0.14156442	     -1.63963978	      0.14496903	      0.13170998	     -1.54231078	      0.05898803	      0.10898100	     -1.51570090	      1.37002713	      0.33347460	     -1.52037510	      1.38272385	      0.17841558	     -1.61533287	      1.45193336	      0.25446695	     -1.53042517	      1.37833224	      0.25250295	     -1.49877097	      1.17729524	      0.22840607	     -1.56332100	      0.90345600	      0.22978300	     -1.55633400	      0.89335100	      0.28497200	     -1.56607100	      0.89467300	      0.17885600	     -1.53887300	      0.48811100	      0.27479000	     -1.44285300	      0.49481700	      0.15300000	     -1.58570900	      0.07063100	      0.25688300	     -1.64263300	      0.12961000	      0.14515200	     -1.48429700	      0.99213000	      0.22607900	     -1.47479200	      0.99083900	      0.32967200	     -1.49380300	      0.99342000	      0.12248700	     -1.68234700	      1.01586200	      0.27503700	     -1.69020900	      1.01526500	      0.19066400	     -1.53052400	      0.48699100	      0.33369100	     -1.44378500	      0.49837000	      0.09361400	     -1.54615600	      0.50121600	      0.21678900	     -1.44157200	      0.48731700	      0.20428600	     -1.59006600	      0.06950200	      0.29461500	     -1.64918500	      0.13402600	      0.10645000	     -1.58617400	      0.07822900	      0.22419800	     -1.63220500	      0.13795500	      0.17396100	     -1.61336700	      1.47099600	      0.25650400	     -1.51238500	      1.39507400	      0.33297000	     -1.51784400	      1.40575800	      0.17782300	     -1.52757800	      1.40188300	      0.25196200	     -1.48870900	      1.20182200	      0.23005200	     -1.50289900	      0.58898500	      0.41895600	     -1.32938200	      0.65272800	      0.13521500	     -1.48681500	      0.65251800	      0.35039600	     -1.42015000	      0.68858900	      0.10067200	     -1.48575000	      0.57295300	      0.32398700	     -1.40580900	      0.60211100	      0.10564000	     -1.56928600	      0.14059400	      0.36486900	     -1.50186600	      0.18448100	      0.13939000	     -1.58180300	      0.20207000	      0.30671000	     -1.53675300	      0.25928300	      0.13755000	     -1.46158800	      0.04310300	      0.24928000	     -1.53928000	      0.06452700	      0.13520900	     -2.32432501	    571.71750412	    -10.92880648	     -1.56165613	      0.00000000	      0.26397833	      0.00000000	      0.00000000	      0.00000000	     -1.90756055	      0.00000000	      0.16013889	      0.00000000	      0.37965576	      0.00000000	      0.00000000	      0.00000000	      0.00000000	     -1.56332135	      0.90345639	      0.22978272	     -1.55633390	      0.89335132	      0.28497195	     -1.56607091	      0.89467323	      0.17885597	     -1.53887331	      0.48811138	      0.27478999	     -1.44285274	      0.49481729	      0.15300006	     -1.58570910	      0.07063119	      0.25688273	     -1.64263260	      0.12961015	      0.14515206	     -1.48429704	      0.99212956	      0.22607949	     -1.47479153	      0.99083906	      0.32967216	     -1.49380255	      0.99342000	      0.12248684	     -1.68234658	      1.01586235	      0.27503672	     -1.69020867	      1.01526523	      0.19066390	     -1.53052390	      0.48699120	      0.33369061	     -1.44378471	      0.49837020	      0.09361355	     -1.54615569	      0.50121623	      0.21678917	     -1.44157219	      0.48731720	      0.20428587	     -1.59006619	      0.06950151	      0.29461521	     -1.64918470	      0.13402607	      0.10645041	     -1.58617425	      0.07822873	      0.22419848	     -1.63220453	      0.13795540	      0.17396142	     -1.61336708	      1.47099578	      0.25650373	     -1.51238477	      1.39507353	      0.33297041	     -1.51784384	      1.40575767	      0.17782253	     -1.52757847	      1.40188324	      0.25196227	     -1.48870862	      1.20182216	      0.23005229	     -1.50289857	      0.58898538	      0.41895595	     -1.32938182	      0.65272838	      0.13521461	     -1.48681498	      0.65251756	      0.35039636	     -1.42015016	      0.68858939	      0.10067179	     -1.48574972	      0.57295287	      0.32398722	     -1.40580893	      0.60211128	      0.10563973	     -1.56928551	      0.14059404	      0.36486858	     -1.50186634	      0.18448131	      0.13938977	     -1.58180285	      0.20206963	      0.30670983	     -1.53675282	      0.25928316	      0.13754983	     -1.46158767	      0.04310285	      0.24928005	     -1.53928030	      0.06452686	      0.13520943
      1.20000000	     -1.49818896	      0.97006355	      0.22338988	      5.14915085	      0.60501120	      4.96494916	     -3.21674102	      1.51584999	      3.08362076	     -8.38128398	      5.48781015	     12.23870509	     -0.52373856	      4.62777956	    -44.56575727	      7.42222461	    -11.65294379	      3.24110835	     -0.23103492	      0.00000000	      0.00000000	      0.00000000	      0.00000000	     -1.44315877	      0.99366625	      0.31840469	     -1.46908856	      0.99738804	      0.10706752	     -1.48663214	      0.97111565	      0.22238182	     -1.65238961	      0.98696523	      0.28068442	     -1.66551865	      0.98903271	      0.19352033	     -1.54556128	      0.90979048	      0.29710923	     -1.55766935	      0.91016699	      0.15869052	     -1.55161532	      0.90997874	      0.22789988	     -1.47510026	      0.47467482	      0.32529511	     -1.51781123	      0.49658138	      0.21468650	     -1.43199805	      0.59254162	      0.39808877	     -1.43528435	      0.65434688	      0.32739766	     -1.43702295	      0.57337627	      0.30290324	     -1.59000554	      0.06347835	      0.32214592	     -1.60054299	      0.06481682	      0.25443289	     -1.54749131	      0.13043912	      0.38367006	     -1.56179170	      0.19211948	      0.32517285	     -1.53598027	      0.49631528	      0.28434991	     -1.58305710	      0.08219987	      0.27967100	     -1.47150128	      0.04069660	      0.26490952	     -1.39767915	      0.50917275	      0.06955175	     -1.41372495	      0.50667493	      0.17654604	     -1.30336100	      0.68291054	      0.13068862	     -1.39356574	      0.71775632	      0.09567940	     -1.37716320	      0.63260320	      0.09224735	     -1.63944691	      0.12709117	      0.09171091	     -1.62486397	      0.12691868	      0.16001560	     -1.48798211	      0.16854964	      0.12960416	     -1.52358774	      0.24514002	      0.12310595	     -1.43037186	      0.51093894	      0.14284811	     -1.62135632	      0.14061497	      0.13213458	     -1.52108317	      0.05797718	      0.10980602	     -1.51072164	      1.36984593	      0.33378816	     -1.51551684	      1.38248015	      0.17872774	     -1.61037520	      1.45177191	      0.25482824	     -1.52550820	      1.37812492	      0.25282519	     -1.49398049	      1.17706107	      0.22878658	     -1.55856600	      0.90342700	      0.23005800	     -1.55216800	      0.89320600	      0.28511200	     -1.56136200	      0.89467600	      0.17895000	     -1.53744500	      0.48794000	      0.27529800	     -1.43474100	      0.49533700	      0.15377800	     -1.58565300	      0.07063600	      0.25708600	     -1.62415200	      0.12468900	      0.14654000	     -1.47978900	      0.99203400	      0.22672300	     -1.47081200	      0.99059800	      0.33038600	     -1.48876700	      0.99346900	      0.12306100	     -1.67777700	      1.01579300	      0.27491300	     -1.68532100	      1.01523800	      0.19053200	     -1.52903200	      0.48681900	      0.33419000	     -1.43542700	      0.49886300	      0.09438700	     -1.54395100	      0.50100600	      0.21730900	     -1.43409600	      0.48826200	      0.20517900	     -1.59008300	      0.06950100	      0.29481000	     -1.63049700	      0.12868900	      0.10775900	     -1.58612000	      0.07840200	      0.22437700	     -1.61415300	      0.13351100	      0.17535600	     -1.60839100	      1.47095900	      0.25685800	     -1.50755300	      1.39501600	      0.33332400	     -1.51280200	      1.40572400	      0.17815400	     -1.52263600	      1.40184200	      0.25228800	     -1.48379600	      1.20177200	      0.23040400	     -1.50059000	      0.58883800	      0.41944300	     -1.32270200	      0.65441300	      0.13650700	     -1.48427200	      0.65221400	      0.35085000	     -1.41362900	      0.68951000	      0.10132300	     -1.48341900	      0.57265700	      0.32450800	     -1.39864200	      0.60315400	      0.10653600	     -1.56918600	      0.14052700	      0.36515100	     -1.48490600	      0.18360700	      0.14161200	     -1.58142100	      0.20212000	      0.30702800	     -1.52208600	      0.25735300	      0.13897700	     -1.46178700	      0.04310800	      0.24942600	     -1.51858700	      0.06310700	      0.13741900	     -0.18062041	    572.71957127	    -10.98384664	     -1.56138306	      0.00000000	      0.26424170	      0.00000000	      0.00000000	      0.00000000	     -1.90666956	      0.00000000	      0.16029593	      0.00000000	      0.45561713	      0.00000000	      0.00000000	      0.00000000	      0.00000000	     -1.55856609	      0.90342700	      0.23005787	     -1.55216753	      0.89320594	      0.28511235	     -1.56136155	      0.89467645	      0.17894992	     -1.53744483	      0.48793951	      0.27529827	     -1.43474138	      0.49533650	      0.15377843	     -1.58565259	      0.07063558	      0.25708607	     -1.62415171	      0.12468922	      0.14654011	     -1.47978926	      0.99203360	      0.22672346	     -1.47081161	      0.99059772	      0.33038601	     -1.48876679	      0.99346942	      0.12306090	     -1.67777681	      1.01579297	      0.27491298	     -1.68532133	      1.01523781	      0.19053161	     -1.52903163	      0.48681903	      0.33418983	     -1.43542695	      0.49886271	      0.09438697	     -1.54395068	      0.50100601	      0.21730912	     -1.43409598	      0.48826244	      0.20517887	     -1.59008253	      0.06950097	      0.29480991	     -1.63049698	      0.12868915	      0.10775881	     -1.58611953	      0.07840198	      0.22437651	     -1.61415339	      0.13351078	      0.17535566	     -1.60839093	      1.47095907	      0.25685754	     -1.50755250	      1.39501631	      0.33332419	     -1.51280177	      1.40572405	      0.17815363	     -1.52263618	      1.40184200	      0.25228828	     -1.48379600	      1.20177233	      0.23040351	     -1.50059009	      0.58883810	      0.41944277	     -1.32270181	      0.65441310	      0.13650723	     -1.48427200	      0.65221411	      0.35085034	     -1.41362906	      0.68951011	      0.10132270	     -1.48341858	      0.57265669	      0.32450768	     -1.39864194	      0.60315430	      0.10653593	     -1.56918561	      0.14052711	      0.36515105	     -1.48490584	      0.18360689	      0.14161164	     -1.58142078	      0.20212036	      0.30702752	     -1.52208579	      0.25735348	      0.13897713	     -1.46178734	      0.04310836	      0.24942617	     -1.51858675	      0.06310724	      0.13741943
      1.20833000	     -1.49343573	      0.96981021	      0.22422058	      5.12503442	      0.66521625	      4.68247612	     -3.60477184	      1.46216902	      3.42645890	     -8.16341106	      5.66250037	     12.67347977	     -0.37925145	      4.56075844	    -43.35779616	      7.74661005	    -11.67626629	      3.09983461	      0.00603767	      0.00000000	      0.00000000	      0.00000000	      0.00000000	     -1.43885266	      0.99324525	      0.31953433	     -1.46376254	      0.99729367	      0.10808052	     -1.48187369	      0.97085827	      0.22326975	     -1.64790254	      0.98670057	      0.28079700	     -1.66061065	      0.98890393	      0.19357388	     -1.54119099	      0.90945030	      0.29762112	     -1.55263209	      0.91003842	      0.15914642	     -1.54691154	      0.90974436	      0.22838377	     -1.47372442	      0.47386041	      0.32580875	     -1.51641006	      0.49604314	      0.21524542	     -1.42971948	      0.59143801	      0.39852997	     -1.43265782	      0.65325166	      0.32783088	     -1.43498771	      0.57229062	      0.30335398	     -1.58990464	      0.06325833	      0.32263697	     -1.60050895	      0.06465437	      0.25493554	     -1.54711232	      0.13006134	      0.38413981	     -1.56127733	      0.19180771	      0.32567932	     -1.53453839	      0.49593405	      0.28493590	     -1.58294116	      0.08197262	      0.28016133	     -1.47140057	      0.04045336	      0.26532991	     -1.38930880	      0.51017444	      0.07098027	     -1.40581646	      0.50762319	      0.17790301	     -1.29654198	      0.68463560	      0.13243005	     -1.38684143	      0.71879819	      0.09699424	     -1.36980008	      0.63376556	      0.09368969	     -1.62039007	      0.12231217	      0.09208588	     -1.60616608	      0.12257532	      0.16046593	     -1.47036403	      0.16806671	      0.13075109	     -1.50809542	      0.24361313	      0.12403139	     -1.42256866	      0.51195795	      0.14413739	     -1.60290274	      0.13635692	      0.13259729	     -1.49977633	      0.05718627	      0.11070610	     -1.50586192	      1.36963868	      0.33414116	     -1.51058427	      1.38219738	      0.17907237	     -1.60544288	      1.45157186	      0.25509716	     -1.52060965	      1.37788401	      0.25316767	     -1.48916608	      1.17679333	      0.22924348	     -1.55382100	      0.90334200	      0.23032200	     -1.54792600	      0.89304900	      0.28527900	     -1.55660100	      0.89464000	      0.17907400	     -1.53599600	      0.48777000	      0.27579900	     -1.42677600	      0.49578500	      0.15456000	     -1.58558100	      0.07062200	      0.25726900	     -1.60548100	      0.11989300	      0.14795300	     -1.47522300	      0.99191000	      0.22735200	     -1.46675000	      0.99035700	      0.33107500	     -1.48369500	      0.99346400	      0.12363000	     -1.67318600	      1.01570600	      0.27476600	     -1.68041100	      1.01518600	      0.19037300	     -1.52752300	      0.48664200	      0.33468200	     -1.42721400	      0.49929200	      0.09516500	     -1.54339200	      0.50114200	      0.21809100	     -1.42697100	      0.48898300	      0.20583900	     -1.59008400	      0.06948200	      0.29498400	     -1.61161900	      0.12349400	      0.10909900	     -1.58606300	      0.07854200	      0.22453700	     -1.59608100	      0.12914800	      0.17673400	     -1.60342100	      1.47090800	      0.25713400	     -1.50275100	      1.39493300	      0.33373400	     -1.50776500	      1.40562500	      0.17850900	     -1.51771100	      1.40175700	      0.25265200	     -1.47894600	      1.20166300	      0.23085200	     -1.49826300	      0.58867200	      0.41991000	     -1.31609500	      0.65597500	      0.13780800	     -1.48161200	      0.65190800	      0.35129300	     -1.40720600	      0.69037200	      0.10207600	     -1.48167700	      0.57216800	      0.32495100	     -1.39170300	      0.60406500	      0.10737800	     -1.56907100	      0.14045400	      0.36541100	     -1.46784400	      0.18292900	      0.14380500	     -1.58100800	      0.20212700	      0.30730000	     -1.50729400	      0.25557100	      0.14039500	     -1.46199600	      0.04312300	      0.24960900	     -1.49776000	      0.06187800	      0.13974800	      2.01985020	    573.78811303	    -11.01905267	     -1.56105518	      0.00000000	      0.26449750	      0.00000000	      0.00000000	      0.00000000	     -1.90583093	      0.00000000	      0.16045850	      0.00000000	      0.53397418	      0.00000000	      0.00000000	      0.00000000	      0.00000000	     -1.55382109	      0.90334249	      0.23032226	     -1.54792619	      0.89304918	      0.28527856	     -1.55660129	      0.89464021	      0.17907421	     -1.53599584	      0.48776972	      0.27579895	     -1.42677569	      0.49578461	      0.15456016	     -1.58558071	      0.07062203	      0.25726932	     -1.60548067	      0.11989293	      0.14795259	     -1.47522259	      0.99191034	      0.22735240	     -1.46675014	      0.99035656	      0.33107483	     -1.48369503	      0.99346411	      0.12362996	     -1.67318571	      1.01570606	      0.27476603	     -1.68041110	      1.01518643	      0.19037339	     -1.52752328	      0.48664185	      0.33468187	     -1.42721415	      0.49929234	      0.09516528	     -1.54339170	      0.50114185	      0.21809092	     -1.42697120	      0.48898292	      0.20583875	     -1.59008420	      0.06948207	      0.29498428	     -1.61161911	      0.12349420	      0.10909901	     -1.58606303	      0.07854236	      0.22453746	     -1.59608054	      0.12914781	      0.17673448	     -1.60342133	      1.47090816	      0.25713360	     -1.50275064	      1.39493263	      0.33373383	     -1.50776505	      1.40562475	      0.17850874	     -1.51771104	      1.40175688	      0.25265193	     -1.47894573	      1.20166326	      0.23085241	     -1.49826348	      0.58867151	      0.41990978	     -1.31609499	      0.65597516	      0.13780837	     -1.48161221	      0.65190828	      0.35129273	     -1.40720570	      0.69037181	      0.10207583	     -1.48167729	      0.57216817	      0.32495070	     -1.39170301	      0.60406530	      0.10737803	     -1.56907094	      0.14045376	      0.36541137	     -1.46784377	      0.18292858	      0.14380503	     -1.58100784	      0.20212749	      0.30730015	     -1.50729442	      0.25557128	      0.14039503	     -1.46199644	      0.04312338	      0.24960907	     -1.49776042	      0.06187806	      0.13974816
